<svg width="37" height="37" viewBox="0 0 37 37" fill="none" xmlns="http://www.w3.org/2000/svg">
<g id="Check circle outline" clip-path="url(#clip0_598_1053)">
<path id="Vector" d="M25.5762 11.6858L15.4166 21.8453L9.882 16.3262L7.70825 18.4999L15.4166 26.2083L27.7499 13.8749L25.5762 11.6858ZM18.4999 3.08325C9.98992 3.08325 3.08325 9.98992 3.08325 18.4999C3.08325 27.0099 9.98992 33.9166 18.4999 33.9166C27.0099 33.9166 33.9166 27.0099 33.9166 18.4999C33.9166 9.98992 27.0099 3.08325 18.4999 3.08325ZM18.4999 30.8333C11.6858 30.8333 6.16659 25.3141 6.16659 18.4999C6.16659 11.6858 11.6858 6.16659 18.4999 6.16659C25.3141 6.16659 30.8333 11.6858 30.8333 18.4999C30.8333 25.3141 25.3141 30.8333 18.4999 30.8333Z" fill="#FFE37F"/>
</g>
<defs>
<clipPath id="clip0_598_1053">
<rect width="37" height="37" fill="white"/>
</clipPath>
</defs>
</svg>
