<svg width="55" height="55" viewBox="0 0 55 55" fill="none" xmlns="http://www.w3.org/2000/svg">
<path d="M0 5C0 2.23857 2.23858 0 5 0H50C52.7614 0 55 2.23858 55 5V50C55 52.7614 52.7614 55 50 55H5C2.23857 55 0 52.7614 0 50V5Z" fill="url(#paint0_linear_682_1230)"/>
<path d="M27.0002 15.85H27C24.597 15.85 22.2479 16.5626 20.2498 17.8976C18.2518 19.2327 16.6945 21.1303 15.7749 23.3504C14.8553 25.5705 14.6147 28.0135 15.0835 30.3703C15.5523 32.7272 16.7094 34.8921 18.4087 36.5913C20.1079 38.2906 22.2728 39.4477 24.6297 39.9165C26.9865 40.3853 29.4295 40.1447 31.6496 39.2251C33.8697 38.3055 35.7673 36.7482 37.1024 34.7502C38.4374 32.7521 39.15 30.403 39.15 28V27.9998C39.1466 24.7785 37.8654 21.6902 35.5876 19.4124C33.3098 17.1346 30.2215 15.8534 27.0002 15.85ZM26.9998 38.0038C25.0213 38.0038 23.0872 37.4171 21.4422 36.3179C19.797 35.2187 18.5148 33.6563 17.7577 31.8283C17.0005 30.0003 16.8024 27.9889 17.1884 26.0483C17.5744 24.1078 18.5272 22.3253 19.9262 20.9262C21.3253 19.5271 23.1078 18.5744 25.0484 18.1884C26.9889 17.8024 29.0003 18.0005 30.8283 18.7577C32.6563 19.5148 34.2187 20.797 35.3179 22.4422C36.4171 24.0872 37.0038 26.0213 37.0038 27.9998C37.0008 30.6521 35.9459 33.1949 34.0704 35.0704C32.195 36.9459 29.6521 38.0008 26.9998 38.0038Z" fill="#001FA0" stroke="#001FA0" stroke-width="0.3"/>
<defs>
<linearGradient id="paint0_linear_682_1230" x1="27" y1="28" x2="2.84558e-06" y2="55" gradientUnits="userSpaceOnUse">
<stop offset="0.24" stop-color="#ADBAEE"/>
<stop offset="1" stop-color="#636A88" stop-opacity="0.5"/>
</linearGradient>
</defs>
</svg>
