<svg width="685" height="107" viewBox="0 0 685 107" fill="none" xmlns="http://www.w3.org/2000/svg">
<rect x="31" y="11" width="297" height="85" rx="10" fill="#B97A57"/>
<rect y="27" width="80" height="26" fill="#B97A57"/>
<rect y="81" width="80" height="26" fill="#B97A57"/>
<rect x="81.2119" y="27" width="80" height="26" fill="#B97A57"/>
<rect x="81.2119" y="81" width="80" height="26" fill="#B97A57"/>
<rect y="26" width="81.2121" height="1" fill="#FFD6BC"/>
<rect y="79" width="81.2121" height="2" fill="#FFD6BC"/>
<rect x="81.2119" y="26" width="81.2121" height="1" fill="#FFD6BC"/>
<rect x="81.2119" y="79" width="81.2121" height="2" fill="#FFD6BC"/>
<rect y="53" width="360" height="1" fill="#FFD6BC"/>
<rect x="79.9999" y="25" width="1.21212" height="29" fill="#FFD6BC"/>
<rect x="79.9999" y="80" width="1.21212" height="27" fill="#FFD6BC"/>
<rect x="161.212" y="25" width="1.21212" height="29" fill="#FFD6BC"/>
<rect x="161.212" y="80" width="1.21212" height="27" fill="#FFD6BC"/>
<rect x="31.5151" width="1.21212" height="27" fill="#FFD6BC"/>
<rect x="31.5151" y="53" width="1.21212" height="28" fill="#FFD6BC"/>
<rect x="112.727" width="1.21212" height="27" fill="#FFD6BC"/>
<rect x="112.727" y="53" width="1.21212" height="28" fill="#FFD6BC"/>
<rect width="31.5152" height="26" fill="#B97A57"/>
<rect y="54" width="31.5152" height="26" fill="#B97A57"/>
<rect x="32.7272" width="80" height="26" fill="#B97A57"/>
<rect x="32.7272" y="54" width="80" height="26" fill="#B97A57"/>
<rect x="162.424" y="27" width="80" height="26" fill="#B97A57"/>
<rect x="162.424" y="81" width="80" height="26" fill="#B97A57"/>
<rect x="243.636" y="27" width="80" height="26" fill="#B97A57"/>
<rect x="243.636" y="81" width="80" height="26" fill="#B97A57"/>
<rect x="324.849" y="27" width="35.1515" height="26" fill="#B97A57"/>
<rect x="324.849" y="81" width="35.1515" height="26" fill="#B97A57"/>
<rect x="162.424" y="26" width="81.2121" height="1" fill="#FFD6BC"/>
<rect x="162.424" y="79" width="81.2121" height="2" fill="#FFD6BC"/>
<rect x="243.636" y="26" width="81.2121" height="1" fill="#FFD6BC"/>
<rect x="243.636" y="79" width="81.2121" height="2" fill="#FFD6BC"/>
<rect x="324.849" y="26" width="35.1515" height="1" fill="#FFD6BC"/>
<rect x="324.849" y="79" width="35.1515" height="2" fill="#FFD6BC"/>
<rect x="242.424" y="25" width="1.21212" height="29" fill="#FFD6BC"/>
<rect x="242.424" y="80" width="1.21212" height="27" fill="#FFD6BC"/>
<rect x="323.636" y="25" width="1.21212" height="29" fill="#FFD6BC"/>
<rect x="323.636" y="80" width="1.21212" height="27" fill="#FFD6BC"/>
<rect x="193.94" width="1.21212" height="27" fill="#FFD6BC"/>
<rect x="193.94" y="53" width="1.21212" height="28" fill="#FFD6BC"/>
<rect x="275.151" width="1.21212" height="27" fill="#FFD6BC"/>
<rect x="275.151" y="53" width="1.21212" height="28" fill="#FFD6BC"/>
<rect x="113.94" width="80" height="26" fill="#B97A57"/>
<rect x="113.94" y="54" width="80" height="26" fill="#B97A57"/>
<rect x="195.152" width="80" height="26" fill="#B97A57"/>
<rect x="195.152" y="54" width="80" height="26" fill="#B97A57"/>
<rect x="276.364" width="83.6364" height="26" fill="#B97A57"/>
<rect x="276.364" y="54" width="83.6364" height="26" fill="#B97A57"/>
<rect x="356" y="11" width="297" height="85" rx="10" fill="#B97A57"/>
<rect x="325" y="27" width="80" height="26" fill="#B97A57"/>
<rect x="325" y="81" width="80" height="26" fill="#B97A57"/>
<rect x="406.212" y="27" width="80" height="26" fill="#B97A57"/>
<rect x="406.212" y="81" width="80" height="26" fill="#B97A57"/>
<rect x="325" y="26" width="81.2121" height="1" fill="#FFD6BC"/>
<rect x="325" y="79" width="81.2121" height="2" fill="#FFD6BC"/>
<rect x="406.212" y="26" width="81.2121" height="1" fill="#FFD6BC"/>
<rect x="406.212" y="79" width="81.2121" height="2" fill="#FFD6BC"/>
<rect x="325" y="53" width="360" height="1" fill="#FFD6BC"/>
<rect x="405" y="25" width="1.21212" height="29" fill="#FFD6BC"/>
<rect x="405" y="80" width="1.21212" height="27" fill="#FFD6BC"/>
<rect x="486.212" y="25" width="1.21212" height="29" fill="#FFD6BC"/>
<rect x="486.212" y="80" width="1.21212" height="27" fill="#FFD6BC"/>
<rect x="356.515" width="1.21212" height="27" fill="#FFD6BC"/>
<rect x="356.515" y="53" width="1.21212" height="28" fill="#FFD6BC"/>
<rect x="437.727" width="1.21212" height="27" fill="#FFD6BC"/>
<rect x="437.727" y="53" width="1.21212" height="28" fill="#FFD6BC"/>
<rect x="325" width="31.5152" height="26" fill="#B97A57"/>
<rect x="325" y="54" width="31.5152" height="26" fill="#B97A57"/>
<rect x="357.727" width="80" height="26" fill="#B97A57"/>
<rect x="357.727" y="54" width="80" height="26" fill="#B97A57"/>
<rect x="487.424" y="27" width="80" height="26" fill="#B97A57"/>
<rect x="487.424" y="81" width="80" height="26" fill="#B97A57"/>
<rect x="568.636" y="27" width="80" height="26" fill="#B97A57"/>
<rect x="568.636" y="81" width="80" height="26" fill="#B97A57"/>
<rect x="649.849" y="27" width="35.1515" height="26" fill="#B97A57"/>
<rect x="649.849" y="81" width="35.1515" height="26" fill="#B97A57"/>
<rect x="487.424" y="26" width="81.2121" height="1" fill="#FFD6BC"/>
<rect x="487.424" y="79" width="81.2121" height="2" fill="#FFD6BC"/>
<rect x="568.636" y="26" width="81.2121" height="1" fill="#FFD6BC"/>
<rect x="568.636" y="79" width="81.2121" height="2" fill="#FFD6BC"/>
<rect x="649.849" y="26" width="35.1515" height="1" fill="#FFD6BC"/>
<rect x="649.849" y="79" width="35.1515" height="2" fill="#FFD6BC"/>
<rect x="567.424" y="25" width="1.21212" height="29" fill="#FFD6BC"/>
<rect x="567.424" y="80" width="1.21212" height="27" fill="#FFD6BC"/>
<rect x="648.636" y="25" width="1.21212" height="29" fill="#FFD6BC"/>
<rect x="648.636" y="80" width="1.21212" height="27" fill="#FFD6BC"/>
<rect x="518.939" width="1.21212" height="27" fill="#FFD6BC"/>
<rect x="518.939" y="53" width="1.21212" height="28" fill="#FFD6BC"/>
<rect x="600.151" width="1.21212" height="27" fill="#FFD6BC"/>
<rect x="600.151" y="53" width="1.21212" height="28" fill="#FFD6BC"/>
<rect x="438.94" width="80" height="26" fill="#B97A57"/>
<rect x="438.94" y="54" width="80" height="26" fill="#B97A57"/>
<rect x="520.152" width="80" height="26" fill="#B97A57"/>
<rect x="520.152" y="54" width="80" height="26" fill="#B97A57"/>
<rect x="601.364" width="83.6364" height="26" fill="#B97A57"/>
<rect x="601.364" y="54" width="83.6364" height="26" fill="#B97A57"/>
</svg>
