<svg width="55" height="55" viewBox="0 0 55 55" fill="none" xmlns="http://www.w3.org/2000/svg">
<path d="M0 5C0 2.23857 2.23858 0 5 0H50C52.7614 0 55 2.23858 55 5V50C55 52.7614 52.7614 55 50 55H5C2.23857 55 0 52.7614 0 50V5Z" fill="url(#paint0_linear_682_1231)" fill-opacity="0.5"/>
<path d="M36.2798 35.2911C36.544 35.5553 36.6924 35.9136 36.6924 36.2872C36.6924 36.6608 36.544 37.0191 36.2798 37.2833C36.0156 37.5475 35.6573 37.6959 35.2837 37.6959C34.9101 37.6959 34.5518 37.5475 34.2876 37.2833L26.8474 29.8407L19.4048 37.281C19.1406 37.5451 18.7823 37.6936 18.4087 37.6936C18.0351 37.6936 17.6768 37.5451 17.4126 37.281C17.1484 37.0168 17 36.6585 17 36.2849C17 35.9113 17.1484 35.5529 17.4126 35.2888L24.8552 27.8485L17.4149 20.406C17.1508 20.1418 17.0023 19.7835 17.0023 19.4099C17.0023 19.0363 17.1508 18.6779 17.4149 18.4138C17.6791 18.1496 18.0374 18.0012 18.411 18.0012C18.7846 18.0012 19.1429 18.1496 19.4071 18.4138L26.8474 25.8563L34.2899 18.4126C34.5541 18.1484 34.9124 18 35.286 18C35.6596 18 36.0179 18.1484 36.2821 18.4126C36.5463 18.6768 36.6947 19.0351 36.6947 19.4087C36.6947 19.7823 36.5463 20.1406 36.2821 20.4048L28.8395 27.8485L36.2798 35.2911Z" fill="#B40E0E"/>
<defs>
<linearGradient id="paint0_linear_682_1231" x1="27" y1="28" x2="2.81632e-06" y2="55" gradientUnits="userSpaceOnUse">
<stop stop-color="#FF0000"/>
<stop offset="1" stop-color="#990000"/>
</linearGradient>
</defs>
</svg>
