<svg width="40" height="42" viewBox="0 0 40 42" fill="none" xmlns="http://www.w3.org/2000/svg">
<path d="M17.0174 7.01404C4.21234 7.01404 4.21234 7.01398 4.21234 19.1401" stroke="#1E40AF" stroke-width="2"/>
<path d="M17.0174 36.986C4.21234 36.986 4.21234 36.986 4.21234 24.8599" stroke="#1E40AF" stroke-width="2"/>
<path d="M22.9372 36.986C35.7423 36.986 35.7423 36.986 35.7423 24.8599" stroke="#1E40AF" stroke-width="2"/>
<path d="M22.9827 7.01404C35.7878 7.01404 35.7878 7.01398 35.7878 19.1401" stroke="#1E40AF" stroke-width="2"/>
<path d="M8.82227 16.025H12.2653C13.0353 16.025 13.6953 16.1607 14.2453 16.432C14.8026 16.7033 15.2279 17.0847 15.5213 17.576C15.8146 18.0673 15.9613 18.643 15.9613 19.303C15.9613 19.9703 15.8146 20.5533 15.5213 21.052C15.2279 21.5433 14.8026 21.9247 14.2453 22.196C13.6953 22.4673 13.0353 22.603 12.2653 22.603H10.8243V24.99H8.82227V16.025ZM12.1773 20.832C12.7419 20.832 13.1783 20.7 13.4863 20.436C13.8016 20.172 13.9593 19.7943 13.9593 19.303C13.9593 18.8117 13.8016 18.4377 13.4863 18.181C13.1783 17.9243 12.7419 17.796 12.1773 17.796H10.8243V20.832H12.1773ZM19.9863 25.144C19.3777 25.144 18.835 24.9973 18.3583 24.704C17.8817 24.418 17.5113 24.0183 17.2473 23.505C16.9833 22.9917 16.8513 22.4123 16.8513 21.767C16.8513 21.1217 16.9833 20.5423 17.2473 20.029C17.5113 19.5157 17.8817 19.116 18.3583 18.83C18.835 18.5367 19.3777 18.39 19.9863 18.39C20.815 18.39 21.431 18.6613 21.8343 19.204V18.544H23.7923V24.99H21.8343V24.33C21.431 24.8727 20.815 25.144 19.9863 25.144ZM20.2943 23.472C20.771 23.472 21.1523 23.3143 21.4383 22.999C21.7243 22.6763 21.8673 22.2657 21.8673 21.767C21.8673 21.2683 21.7243 20.8613 21.4383 20.546C21.1523 20.2233 20.771 20.062 20.2943 20.062C19.8323 20.062 19.462 20.2233 19.1833 20.546C18.9047 20.8613 18.7653 21.2683 18.7653 21.767C18.7653 22.2657 18.9047 22.6763 19.1833 22.999C19.462 23.3143 19.8323 23.472 20.2943 23.472ZM31.8782 18.544L28.1712 27.674H26.2462L27.4122 24.814L24.8712 18.544H27.0382L28.4352 22.526L29.8432 18.544H31.8782Z" fill="black"/>
<line x1="5" y1="23.5" x2="35" y2="23.5" stroke="#E11D48"/>
</svg>
