<svg width="187" height="290" viewBox="0 0 187 290" fill="none" xmlns="http://www.w3.org/2000/svg">
<rect x="89.7147" y="37.2656" width="4.83069" height="142.851" fill="#6B7280" fill-opacity="0.2"/>
<ellipse cx="92.8202" cy="26.914" rx="15.5272" ry="10.3515" fill="#6B7280" fill-opacity="0.2"/>
<ellipse cx="114.212" cy="197.713" rx="1.72525" ry="1.72525" fill="#D9D9D9"/>
<ellipse cx="143.195" cy="94.1985" rx="8.62627" ry="8.62624" fill="#F9FAFB" fill-opacity="0.51"/>
<path d="M151.821 94.284C151.821 99.0482 147.959 102.91 143.195 102.91C138.431 102.91 134.569 99.0482 134.569 94.284C134.569 89.5199 138.431 95.6643 143.195 95.6643C147.959 95.6643 151.821 89.5199 151.821 94.284Z" fill="#DBEAFE"/>
<path d="M147.234 89.0229C147.234 89.7852 145.534 90.4031 143.438 90.4031C141.342 90.4031 140.678 89.7852 140.678 89.0229C140.678 88.2607 141.342 87.6427 143.438 87.6427C145.534 87.6427 147.234 88.2607 147.234 89.0229Z" fill="white"/>
<ellipse cx="107.706" cy="80.7937" rx="8.62624" ry="8.62625" transform="rotate(-60 107.706 80.7937)" fill="#F9FAFB" fill-opacity="0.51"/>
<path d="M112.093 73.3659C116.219 75.748 117.632 81.0237 115.25 85.1496C112.868 89.2754 107.593 90.6891 103.467 88.307C102.198 87.5742 106.519 85.6097 108.901 81.4839C111.283 77.358 110.824 72.6332 112.093 73.3659Z" fill="#6591F0"/>
<path d="M107.542 74.9322C107.946 74.2858 109.715 74.6622 111.493 75.7731C113.27 76.8839 114.419 77.6016 113.98 78.9549C113.541 80.3082 112.169 78.7913 110.391 77.6804C108.614 76.5696 107.138 75.5786 107.542 74.9322Z" fill="white"/>
<ellipse cx="47.3878" cy="132.215" rx="8.62627" ry="8.62624" transform="rotate(10 47.3878 132.215)" fill="#F9FAFB" fill-opacity="0.51"/>
<path d="M55.8689 133.798C55.0416 138.49 50.5675 141.622 45.8757 140.795C41.1839 139.968 38.0511 135.494 38.8784 130.802C39.7057 126.11 42.4422 132.832 47.1339 133.659C51.8257 134.486 56.6961 129.106 55.8689 133.798Z" fill="#2563EB" fill-opacity="0.7"/>
<path d="M52.2659 127.82C52.1336 128.571 50.3527 128.884 48.2884 128.52C46.224 128.156 45.6772 127.432 45.8096 126.682C45.9419 125.931 46.7033 125.438 48.7677 125.802C50.8321 126.166 52.3983 127.07 52.2659 127.82Z" fill="white"/>
<ellipse cx="52.7924" cy="90.8332" rx="8.62627" ry="8.62624" transform="rotate(-180 52.7924 90.8332)" fill="#F9FAFB" fill-opacity="0.51"/>
<path d="M44.1662 90.7482C44.1662 85.9841 48.0283 82.122 52.7924 82.122C57.5566 82.122 61.4187 85.9841 61.4187 90.7482C61.4187 95.5124 57.5566 89.3679 52.7924 89.3679C48.0283 89.3679 44.1662 95.5124 44.1662 90.7482Z" fill="#2563EB" fill-opacity="0.7"/>
<path d="M48.7541 96.0092C48.7541 95.247 50.4534 94.629 52.5497 94.629C54.6459 94.629 55.3101 95.247 55.3101 96.0092C55.3101 96.7715 54.6459 97.3894 52.5497 97.3894C50.4534 97.3894 48.7541 96.7715 48.7541 96.0092Z" fill="white"/>
<ellipse cx="36.9223" cy="146.647" rx="8.62624" ry="8.62627" transform="rotate(-90 36.9223 146.647)" fill="#F9FAFB" fill-opacity="0.51"/>
<path d="M37.0049 138.02C41.769 138.02 45.6312 141.882 45.6312 146.646C45.6312 151.41 41.769 155.273 37.0049 155.273C32.2407 155.273 38.3852 151.41 38.3852 146.646C38.3852 141.882 32.2407 138.02 37.0049 138.02Z" fill="#DBEAFE"/>
<path d="M31.7451 142.607C32.5073 142.607 33.1253 144.306 33.1253 146.402C33.1253 148.498 32.5073 149.162 31.7451 149.162C30.9828 149.162 30.3649 148.498 30.3649 146.402C30.3649 144.306 30.9828 142.607 31.7451 142.607Z" fill="white"/>
<ellipse cx="114.29" cy="142.582" rx="8.62624" ry="8.62625" transform="rotate(-50 114.29 142.582)" fill="#F9FAFB" fill-opacity="0.51"/>
<path d="M119.899 136.028C123.548 139.09 124.024 144.531 120.962 148.181C117.9 151.831 112.458 152.307 108.809 149.244C105.159 146.182 112.349 147.173 115.411 143.523C118.473 139.874 116.249 132.966 119.899 136.028Z" fill="#2563EB" fill-opacity="0.7"/>
<path d="M112.922 136.16C113.506 136.65 112.887 138.349 111.539 139.954C110.192 141.56 109.292 141.672 108.708 141.182C108.124 140.692 108.077 139.786 109.425 138.18C110.772 136.574 112.338 135.67 112.922 136.16Z" fill="white"/>
<ellipse cx="50.1087" cy="109.457" rx="8.62624" ry="8.62625" transform="rotate(-50 50.1087 109.457)" fill="#F9FAFB" fill-opacity="0.51"/>
<path d="M55.7205 102.904C59.37 105.966 59.8461 111.407 56.7837 115.057C53.7214 118.706 48.2804 119.182 44.6308 116.12C40.9812 113.058 48.1707 114.049 51.233 110.399C54.2953 106.75 52.0709 99.8415 55.7205 102.904Z" fill="#2563EB" fill-opacity="0.7"/>
<path d="M48.741 103.036C49.3249 103.526 48.706 105.224 47.3585 106.83C46.0111 108.436 45.1108 108.548 44.5269 108.058C43.943 107.568 43.8965 106.662 45.244 105.056C46.5914 103.45 48.1571 102.546 48.741 103.036Z" fill="white"/>
<ellipse cx="90.0584" cy="155.013" rx="8.62627" ry="8.62624" transform="rotate(180 90.0584 155.013)" fill="#F9FAFB" fill-opacity="0.51"/>
<path d="M81.4321 154.928C81.4321 150.163 85.2943 146.301 90.0584 146.301C94.8226 146.301 98.6847 150.163 98.6847 154.928C98.6847 159.692 94.8226 153.547 90.0584 153.547C85.2943 153.547 81.4321 159.692 81.4321 154.928Z" fill="#DBEAFE"/>
<path d="M86.0196 160.189C86.0196 159.426 87.7189 158.808 89.8152 158.808C91.9114 158.808 92.5756 159.426 92.5756 160.189C92.5756 160.951 91.9114 161.569 89.8152 161.569C87.7189 161.569 86.0196 160.951 86.0196 160.189Z" fill="white"/>
<ellipse cx="87.2962" cy="106.705" rx="8.62627" ry="8.62624" transform="rotate(180 87.2962 106.705)" fill="#F9FAFB" fill-opacity="0.51"/>
<path d="M78.6699 106.62C78.6699 101.856 82.5321 97.9943 87.2962 97.9943C92.0604 97.9943 95.9225 101.856 95.9225 106.62C95.9225 111.385 92.0604 105.24 87.2962 105.24C82.5321 105.24 78.6699 111.385 78.6699 106.62Z" fill="#DBEAFE"/>
<path d="M83.2579 111.882C83.2579 111.119 84.9572 110.501 87.0535 110.501C89.1497 110.501 89.8139 111.119 89.8139 111.882C89.8139 112.644 89.1497 113.262 87.0535 113.262C84.9572 113.262 83.2579 112.644 83.2579 111.882Z" fill="white"/>
<ellipse cx="99.0314" cy="141.126" rx="8.62627" ry="8.62624" fill="#F9FAFB" fill-opacity="0.51"/>
<path d="M107.657 141.211C107.657 145.975 103.795 149.837 99.0312 149.837C94.267 149.837 90.4049 145.975 90.4049 141.211C90.4049 136.447 94.267 142.591 99.0312 142.591C103.795 142.591 107.657 136.447 107.657 141.211Z" fill="#059669" fill-opacity="0.5"/>
<ellipse cx="105.239" cy="155.617" rx="8.62627" ry="8.62624" fill="#F9FAFB" fill-opacity="0.51"/>
<path d="M113.866 155.703C113.866 160.467 110.003 164.329 105.239 164.329C100.475 164.329 96.613 160.467 96.613 155.703C96.613 150.939 100.475 157.083 105.239 157.083C110.003 157.083 113.866 150.939 113.866 155.703Z" fill="#059669" fill-opacity="0.5"/>
<ellipse cx="152.845" cy="110.073" rx="8.62624" ry="8.62627" transform="rotate(-100 152.845 110.073)" fill="#F9FAFB" fill-opacity="0.51"/>
<path d="M151.428 101.563C156.12 100.735 160.594 103.868 161.421 108.56C162.249 113.252 159.116 117.726 154.424 118.553C149.732 119.38 155.113 114.51 154.285 109.818C153.458 105.126 146.736 102.39 151.428 101.563Z" fill="#059669" fill-opacity="0.5"/>
<path d="M147.045 106.993C147.796 106.861 148.7 108.427 149.064 110.491C149.428 112.555 148.934 113.317 148.184 113.449C147.433 113.582 146.709 113.035 146.345 110.97C145.981 108.906 146.295 107.125 147.045 106.993Z" fill="white"/>
<ellipse cx="123.259" cy="129.47" rx="8.62624" ry="8.62625" transform="rotate(-50 123.259 129.47)" fill="#F9FAFB" fill-opacity="0.51"/>
<path d="M128.871 122.917C132.52 125.979 132.996 131.42 129.934 135.07C126.872 138.719 121.43 139.195 117.781 136.133C114.131 133.071 121.321 134.062 124.383 130.412C127.445 126.763 125.221 119.854 128.871 122.917Z" fill="#059669" fill-opacity="0.5"/>
<path d="M121.891 123.048C122.475 123.538 121.856 125.237 120.509 126.843C119.161 128.449 118.261 128.561 117.677 128.071C117.093 127.581 117.047 126.675 118.394 125.069C119.742 123.463 121.307 122.558 121.891 123.048Z" fill="white"/>
<ellipse cx="57.0071" cy="155.004" rx="8.62624" ry="8.62625" transform="rotate(-50 57.0071 155.004)" fill="#F9FAFB" fill-opacity="0.51"/>
<path d="M62.6188 148.45C66.2684 151.513 66.7444 156.954 63.6821 160.603C60.6197 164.253 55.1787 164.729 51.5291 161.667C47.8795 158.604 55.069 159.595 58.1313 155.946C61.1937 152.296 58.9692 145.388 62.6188 148.45Z" fill="#059669" fill-opacity="0.5"/>
<path d="M55.6393 148.582C56.2232 149.072 55.6043 150.771 54.2569 152.377C52.9094 153.983 52.0091 154.094 51.4252 153.604C50.8413 153.114 50.7948 152.208 52.1423 150.602C53.4897 148.997 55.0554 148.092 55.6393 148.582Z" fill="white"/>
<ellipse cx="36.3064" cy="97.7253" rx="8.62624" ry="8.62625" transform="rotate(-50 36.3064 97.7253)" fill="#F9FAFB" fill-opacity="0.51"/>
<path d="M41.9174 91.1722C45.5669 94.2345 46.043 99.6756 42.9806 103.325C39.9183 106.975 34.4773 107.451 30.8277 104.388C27.1781 101.326 34.3676 102.317 37.4299 98.6675C40.4922 95.018 38.2678 88.1098 41.9174 91.1722Z" fill="#059669" fill-opacity="0.5"/>
<path d="M34.9386 91.3038C35.5225 91.7938 34.9036 93.4928 33.5562 95.0986C32.2087 96.7044 31.3085 96.816 30.7245 96.326C30.1406 95.836 30.0942 94.93 31.4416 93.3242C32.789 91.7184 34.3547 90.8139 34.9386 91.3038Z" fill="white"/>
<ellipse cx="64.2872" cy="125.704" rx="8.62627" ry="8.62624" transform="rotate(-14 64.2872 125.704)" fill="#F9FAFB" fill-opacity="0.51"/>
<path d="M72.6739 123.7C73.8265 128.322 71.0134 133.004 66.3908 134.156C61.7681 135.309 57.0864 132.496 55.9339 127.873C54.7813 123.251 60.0152 128.278 64.6378 127.126C69.2605 125.973 71.5214 119.077 72.6739 123.7Z" fill="#059669" fill-opacity="0.5"/>
<path d="M66.9538 119.704C67.1382 120.444 65.6388 121.455 63.6049 121.962C61.5709 122.469 60.777 122.03 60.5926 121.29C60.4082 120.551 60.9031 119.791 62.9371 119.283C64.971 118.776 66.7694 118.965 66.9538 119.704Z" fill="white"/>
<ellipse cx="140.199" cy="154.687" rx="8.62627" ry="8.62624" transform="rotate(-14 140.199 154.687)" fill="#F9FAFB" fill-opacity="0.51"/>
<path d="M148.586 152.684C149.739 157.306 146.926 161.988 142.303 163.141C137.68 164.293 132.999 161.48 131.846 156.858C130.693 152.235 135.927 157.263 140.55 156.11C145.173 154.957 147.433 148.061 148.586 152.684Z" fill="#059669" fill-opacity="0.5"/>
<path d="M142.864 148.689C143.048 149.428 141.549 150.439 139.515 150.946C137.481 151.453 136.687 151.014 136.503 150.275C136.318 149.535 136.813 148.775 138.847 148.268C140.881 147.761 142.68 147.949 142.864 148.689Z" fill="white"/>
<ellipse cx="140.433" cy="128.013" rx="8.62627" ry="8.62624" fill="#F9FAFB" fill-opacity="0.51"/>
<path d="M149.06 128.099C149.06 132.863 145.198 136.725 140.434 136.725C135.669 136.725 131.807 132.863 131.807 128.099C131.807 126.634 135.669 129.394 140.434 129.394C145.198 129.394 149.06 126.634 149.06 128.099Z" fill="#FF7F7F" fill-opacity="0.8"/>
<path d="M145.428 124.941C146.19 124.967 146.748 126.687 146.675 128.782C146.602 130.877 146.554 132.231 145.163 132.527C143.772 132.824 144.399 130.877 144.472 128.782C144.545 126.687 144.666 124.914 145.428 124.941Z" fill="white"/>
<ellipse cx="34.1608" cy="116.972" rx="8.62627" ry="8.62624" fill="#F9FAFB" fill-opacity="0.51"/>
<path d="M42.7871 117.057C42.7871 121.822 38.925 125.684 34.1608 125.684C29.3967 125.684 25.5345 121.822 25.5345 117.057C25.5345 115.592 29.3967 118.352 34.1608 118.352C38.925 118.352 42.7871 115.592 42.7871 117.057Z" fill="#FF7F7F" fill-opacity="0.8"/>
<path d="M39.1545 113.899C39.9163 113.926 40.4746 115.646 40.4014 117.741C40.3283 119.836 40.281 121.189 38.8896 121.486C37.4982 121.782 38.1258 119.836 38.199 117.741C38.2721 115.646 38.3927 113.873 39.1545 113.899Z" fill="white"/>
<ellipse cx="134.226" cy="110.761" rx="8.62627" ry="8.62624" fill="#F9FAFB" fill-opacity="0.51"/>
<path d="M142.852 110.847C142.852 115.611 138.99 119.473 134.226 119.473C129.462 119.473 125.6 115.611 125.6 110.847C125.6 109.381 129.462 112.141 134.226 112.141C138.99 112.141 142.852 109.381 142.852 110.847Z" fill="#FF7F7F" fill-opacity="0.8"/>
<path d="M139.22 107.688C139.982 107.715 140.54 109.435 140.467 111.53C140.394 113.625 140.347 114.978 138.955 115.275C137.564 115.571 138.192 113.625 138.265 111.53C138.338 109.435 138.459 107.662 139.22 107.688Z" fill="white"/>
<ellipse cx="132.513" cy="142.865" rx="8.62624" ry="8.62626" transform="rotate(-70 132.513 142.865)" fill="#F9FAFB" fill-opacity="0.51"/>
<path d="M135.546 134.789C140.023 136.418 142.331 141.368 140.702 145.845C139.072 150.322 134.122 152.63 129.645 151.001C128.268 150.499 132.183 147.814 133.813 143.338C135.442 138.861 134.169 134.287 135.546 134.789Z" fill="#FF7F7F" fill-opacity="0.8"/>
<path d="M131.335 137.122C131.62 136.415 133.428 136.479 135.371 137.264C137.315 138.049 138.57 138.556 138.373 139.965C138.176 141.374 136.561 140.119 134.618 139.333C132.674 138.548 131.049 137.828 131.335 137.122Z" fill="white"/>
<ellipse cx="104.219" cy="100.079" rx="8.62624" ry="8.62626" transform="rotate(-70 104.219 100.079)" fill="#F9FAFB" fill-opacity="0.51"/>
<path d="M107.251 92.0026C111.728 93.632 114.036 98.5821 112.407 103.059C110.777 107.536 105.827 109.844 101.35 108.215C99.9733 107.713 103.888 105.028 105.518 100.551C107.147 96.0746 105.874 91.5013 107.251 92.0026Z" fill="#FF7F7F" fill-opacity="0.8"/>
<path d="M103.042 94.3353C103.327 93.6285 105.134 93.6922 107.078 94.4774C109.021 95.2627 110.277 95.77 110.08 97.179C109.883 98.5879 108.268 97.3323 106.325 96.547C104.381 95.7618 102.756 95.0421 103.042 94.3353Z" fill="white"/>
<ellipse cx="72.8351" cy="155.646" rx="8.62627" ry="8.62624" transform="rotate(-5 72.8351 155.646)" fill="#F9FAFB" fill-opacity="0.51"/>
<path d="M81.4349 154.98C81.8501 159.726 78.3393 163.91 73.5933 164.325C68.8473 164.74 64.6632 161.229 64.248 156.483C64.1203 155.023 68.2083 157.437 72.9543 157.021C77.7003 156.606 81.3072 153.52 81.4349 154.98Z" fill="#FF7F7F" fill-opacity="0.8"/>
<path d="M77.5441 152.15C78.3053 152.11 79.0114 153.775 79.1211 155.868C79.2308 157.962 79.3017 159.314 77.9414 159.731C76.5811 160.148 77.0367 158.154 76.927 156.06C76.8173 153.967 76.7829 152.19 77.5441 152.15Z" fill="white"/>
<ellipse cx="122.163" cy="95.2489" rx="8.62626" ry="8.62624" transform="rotate(-20 122.163 95.2489)" fill="#F9FAFB" fill-opacity="0.51"/>
<path d="M130.299 92.3785C131.929 96.8554 129.621 101.806 125.144 103.435C120.667 105.064 115.717 102.756 114.087 98.2792C113.586 96.9021 118.159 98.1751 122.636 96.5456C127.113 94.9162 129.798 91.0014 130.299 92.3785Z" fill="#FFE37F" fill-opacity="0.8"/>
<path d="M125.805 90.653C126.53 90.4175 127.643 91.8426 128.291 93.8363C128.939 95.8299 129.357 97.1179 128.151 97.8726C126.945 98.6272 126.869 96.5832 126.221 94.5896C125.573 92.596 125.08 90.8886 125.805 90.653Z" fill="white"/>
<ellipse cx="82.8254" cy="142.865" rx="8.62626" ry="8.62624" transform="rotate(-20 82.8254 142.865)" fill="#F9FAFB" fill-opacity="0.51"/>
<path d="M90.9633 139.996C92.5927 144.472 90.2844 149.423 85.8076 151.052C81.3307 152.681 76.3806 150.373 74.7512 145.896C74.2499 144.519 78.8232 145.792 83.3001 144.163C87.7769 142.533 90.462 138.618 90.9633 139.996Z" fill="#FFE37F" fill-opacity="0.8"/>
<path d="M86.4684 138.27C87.1934 138.034 88.3062 139.46 88.9539 141.453C89.6017 143.447 90.0202 144.735 88.8142 145.49C87.6081 146.244 87.5321 144.2 86.8843 142.207C86.2366 140.213 85.7434 138.506 86.4684 138.27Z" fill="white"/>
<ellipse cx="99.0146" cy="123.874" rx="8.62624" ry="8.62627" transform="rotate(-100 99.0146 123.874)" fill="#F9FAFB" fill-opacity="0.51"/>
<path d="M97.6028 115.365C102.295 114.537 106.769 117.67 107.596 122.362C108.423 127.054 105.29 131.528 100.599 132.355C95.9069 133.182 101.287 128.312 100.46 123.62C99.6328 118.928 92.911 116.192 97.6028 115.365Z" fill="#059669" fill-opacity="0.5"/>
<path d="M94.4462 121.327C94.0883 120.654 95.2986 119.311 97.1495 118.326C99.0003 117.342 100.196 116.706 101.149 117.763C102.101 118.82 100.102 119.25 98.2507 120.234C96.3999 121.218 94.804 122 94.4462 121.327Z" fill="white"/>
<ellipse cx="67.9635" cy="112.143" rx="8.62624" ry="8.62627" transform="rotate(-100 67.9635 112.143)" fill="#F9FAFB" fill-opacity="0.51"/>
<path d="M66.5466 103.633C71.2384 102.806 75.7125 105.938 76.5398 110.63C77.3671 115.322 74.2343 119.796 69.5425 120.623C64.8507 121.451 70.2312 116.58 69.4039 111.888C68.5766 107.197 61.8549 104.46 66.5466 103.633Z" fill="#059669" fill-opacity="0.5"/>
<path d="M63.3886 109.595C63.0307 108.922 64.241 107.579 66.0919 106.595C67.9427 105.611 69.1385 104.975 70.0911 106.031C71.0437 107.088 69.0439 107.518 67.1931 108.502C65.3422 109.486 63.7464 110.268 63.3886 109.595Z" fill="white"/>
<ellipse cx="159.744" cy="127.325" rx="8.62624" ry="8.62627" transform="rotate(-100 159.744 127.325)" fill="#F9FAFB" fill-opacity="0.51"/>
<path d="M158.332 118.815C163.024 117.988 167.498 121.121 168.325 125.812C169.153 130.504 166.02 134.978 161.328 135.805C156.636 136.633 162.017 131.762 161.189 127.071C160.362 122.379 153.64 119.642 158.332 118.815Z" fill="#059669" fill-opacity="0.5"/>
<path d="M155.175 124.777C154.817 124.104 156.028 122.761 157.878 121.777C159.729 120.793 160.925 120.157 161.878 121.214C162.83 122.27 160.83 122.7 158.98 123.684C157.129 124.668 155.533 125.45 155.175 124.777Z" fill="white"/>
<ellipse cx="151.877" cy="144.284" rx="8.62624" ry="8.62625" transform="rotate(-60 151.877 144.284)" fill="#F9FAFB" fill-opacity="0.51"/>
<path d="M156.263 136.855C160.389 139.237 161.802 144.513 159.42 148.639C157.038 152.765 151.762 154.178 147.637 151.796C146.367 151.063 150.689 149.099 153.071 144.973C155.453 140.847 154.994 136.122 156.263 136.855Z" fill="#FFE37F" fill-opacity="0.8"/>
<ellipse cx="115.99" cy="112.538" rx="8.62624" ry="8.62625" transform="rotate(-60 115.99 112.538)" fill="#F9FAFB" fill-opacity="0.51"/>
<path d="M120.376 105.111C124.502 107.493 125.916 112.768 123.534 116.894C121.152 121.02 115.876 122.434 111.75 120.052C110.481 119.319 114.802 117.354 117.185 113.228C119.567 109.103 119.107 104.378 120.376 105.111Z" fill="#FFE37F" fill-opacity="0.8"/>
<ellipse cx="89.0766" cy="89.7652" rx="8.62624" ry="8.62625" transform="rotate(-60 89.0766 89.7652)" fill="#F9FAFB" fill-opacity="0.51"/>
<path d="M93.4636 82.3372C97.5895 84.7193 99.0031 89.995 96.621 94.1209C94.239 98.2467 88.9632 99.6604 84.8374 97.2783C83.5682 96.5455 87.8898 94.581 90.2719 90.4552C92.6539 86.3293 92.1945 81.6044 93.4636 82.3372Z" fill="#FFE37F" fill-opacity="0.8"/>
<ellipse cx="64.2334" cy="142.212" rx="8.62624" ry="8.62625" transform="rotate(-60 64.2334 142.212)" fill="#F9FAFB" fill-opacity="0.51"/>
<path d="M68.6202 134.784C72.746 137.167 74.1597 142.442 71.7776 146.568C69.3955 150.694 64.1198 152.108 59.9939 149.726C58.7247 148.993 63.0463 147.028 65.4284 142.902C67.8105 138.777 67.351 134.052 68.6202 134.784Z" fill="#FFE37F" fill-opacity="0.8"/>
<ellipse cx="82.8254" cy="126.993" rx="8.62624" ry="8.62626" transform="rotate(-70 82.8254 126.993)" fill="#F9FAFB" fill-opacity="0.51"/>
<path d="M85.8595 118.916C90.3363 120.546 92.6446 125.496 91.0151 129.973C89.3857 134.45 84.4356 136.758 79.9588 135.128C78.5816 134.627 82.4964 131.942 84.1259 127.465C85.7553 122.989 84.4823 118.415 85.8595 118.916Z" fill="#FFE37F" fill-opacity="0.8"/>
<path d="M81.6475 121.249C81.9331 120.542 83.7401 120.606 85.6837 121.391C87.6273 122.177 88.883 122.684 88.6859 124.093C88.4887 125.502 86.8741 124.246 84.9305 123.461C82.9869 122.676 81.362 121.956 81.6475 121.249Z" fill="white"/>
<ellipse cx="25.5503" cy="131.824" rx="8.62624" ry="8.62626" transform="rotate(-70 25.5503 131.824)" fill="#F9FAFB" fill-opacity="0.51"/>
<path d="M28.577 123.747C33.0538 125.376 35.3621 130.326 33.7326 134.803C32.1032 139.28 27.1531 141.588 22.6763 139.959C21.2991 139.457 25.2139 136.772 26.8434 132.295C28.4728 127.819 27.1999 123.245 28.577 123.747Z" fill="#FFE37F" fill-opacity="0.8"/>
<path d="M24.368 126.079C24.6536 125.373 26.4606 125.436 28.4042 126.221C30.3478 127.007 31.6035 127.514 31.4064 128.923C31.2093 130.332 29.5946 129.076 27.651 128.291C25.7074 127.506 24.0825 126.786 24.368 126.079Z" fill="white"/>
<ellipse cx="122.853" cy="156.668" rx="8.62624" ry="8.62626" transform="rotate(-70 122.853 156.668)" fill="#F9FAFB" fill-opacity="0.51"/>
<path d="M125.884 148.591C130.36 150.22 132.669 155.17 131.039 159.647C129.41 164.124 124.46 166.432 119.983 164.803C118.606 164.302 122.521 161.617 124.15 157.14C125.779 152.663 124.506 148.09 125.884 148.591Z" fill="#FFE37F" fill-opacity="0.8"/>
<path d="M121.671 150.924C121.957 150.217 123.764 150.28 125.708 151.066C127.651 151.851 128.907 152.358 128.71 153.767C128.513 155.176 126.898 153.921 124.954 153.135C123.011 152.35 121.386 151.63 121.671 150.924Z" fill="white"/>
<ellipse cx="72.1166" cy="94.1985" rx="8.62627" ry="8.62624" fill="#F9FAFB" fill-opacity="0.51"/>
<path d="M80.7429 94.2841C80.7429 99.0483 76.8808 102.91 72.1166 102.91C67.3525 102.91 63.4904 99.0483 63.4904 94.2841C63.4904 92.8186 67.3525 95.579 72.1166 95.579C76.8808 95.579 80.7429 92.8186 80.7429 94.2841Z" fill="#FFE37F" fill-opacity="0.8"/>
<path d="M77.1111 91.1259C77.8729 91.1525 78.4311 92.8723 78.358 94.9673C78.2848 97.0622 78.2375 98.4157 76.8461 98.7123C75.4547 99.009 76.0824 97.0622 76.1555 94.9673C76.2287 92.8723 76.3493 91.0993 77.1111 91.1259Z" fill="white"/>
<path d="M183.327 93.1634C183.327 136.92 143.301 172.975 93.1636 172.975C43.0257 172.975 3 136.92 3 93.1634C3 49.407 43.0257 13.3515 93.1636 13.3515C143.301 13.3515 183.327 49.407 183.327 93.1634Z" stroke="#DBEFFE" stroke-width="6"/>
<path d="M101.939 9.31639C101.939 14.4617 95.7748 18.6328 89.7289 18.6328C83.6831 18.6328 78.7819 14.4617 78.7819 9.31639C78.7819 4.17109 83.6831 0 89.7289 0C95.7748 0 101.939 4.17109 101.939 9.31639Z" fill="#EF333A"/>
<path d="M54.2598 11.7202C55.1616 10.8426 56.3703 10.3515 57.6287 10.3515H123.327C124.701 10.3515 126.01 10.9367 126.927 11.9605V11.9605C129.712 15.0722 127.503 20.013 123.327 20.013H57.6287C53.2932 20.013 51.1526 14.7438 54.2598 11.7202V11.7202Z" fill="#C05851"/>
<path d="M87.3742 15.8726H127.69C128.309 15.8726 128.923 15.9876 129.5 16.2119L130.405 16.5634C135.563 18.5671 134.128 26.224 128.595 26.224H53.4526C48.0752 26.224 46.4884 18.8968 51.384 16.672L52.1574 16.3205C52.8071 16.0253 53.5125 15.8726 54.2261 15.8726H87.3742Z" fill="#E02F33"/>
<path d="M34.8957 188.148C36.6708 178.69 44.9296 171.838 54.5525 171.838H132.027C141.692 171.838 149.975 178.75 151.704 188.26L165.824 265.922C168.057 278.199 158.625 289.5 146.147 289.5H39.9767C27.4525 289.5 18.0096 278.12 20.3198 265.811L34.8957 188.148Z" fill="#EF333A"/>
<rect x="31.054" y="165.627" width="124.218" height="11.0416" rx="5.52082" fill="#B72323"/>
<path d="M88.3343 170.995C88.3343 171.515 77.5765 171.937 64.306 171.937C51.0356 171.937 42.4621 171.937 40.2777 170.995C38.0933 170.054 50.5488 170.436 63.8192 170.436C77.0897 170.436 88.3343 170.476 88.3343 170.995Z" fill="#F9FAFB"/>
<path d="M31.5211 259.65C30.6253 259.492 32.1675 246.499 34.9657 230.63C37.7639 214.761 39.5716 204.508 41.6543 202.182C43.7369 199.856 40.4532 214.635 37.655 230.504C34.8569 246.373 32.417 259.808 31.5211 259.65Z" fill="#F9FAFB"/>
<rect x="65.562" y="190.468" width="55.898" height="80.0516" rx="10" fill="#FFFAFA"/>
<rect x="69.008" y="194.608" width="48.3071" height="71.0805" rx="5" fill="#878599" fill-opacity="0.8"/>
<rect x="80.7407" y="236.015" width="26.2238" height="26.2238" rx="5" fill="white"/>
<ellipse cx="72.8037" cy="197.713" rx="1.72525" ry="1.72525" fill="#6C573E" fill-opacity="0.58"/>
<ellipse cx="114.212" cy="262.584" rx="1.72525" ry="1.72525" fill="#6C573E" fill-opacity="0.58"/>
<ellipse cx="114.212" cy="197.713" rx="1.72525" ry="1.72525" fill="#6C573E" fill-opacity="0.58"/>
<ellipse cx="72.8037" cy="262.584" rx="1.72525" ry="1.72525" fill="#6C573E" fill-opacity="0.58"/>
<ellipse cx="93.5103" cy="214.967" rx="16.2174" ry="16.9074" fill="white" fill-opacity="0.9"/>
<path d="M72.4596 215.467C72.4596 213.146 74.4291 211.312 76.7446 211.477L88.4836 212.316C90.3423 212.448 91.7823 213.995 91.7823 215.858V215.858C91.7823 217.698 90.3783 219.233 88.5464 219.396L76.8153 220.444C74.4751 220.653 72.4596 218.809 72.4596 216.459V215.467Z" fill="#974236"/>
<path d="M113.868 215.467C113.868 213.146 111.899 211.312 109.583 211.477L97.8442 212.316C95.9855 212.448 94.5454 213.995 94.5454 215.858V215.858C94.5454 217.698 95.9494 219.233 97.7814 219.396L109.512 220.444C111.853 220.653 113.868 218.809 113.868 216.459V215.467Z" fill="#974236"/>
<ellipse cx="92.8198" cy="215.657" rx="4.48566" ry="4.48564" fill="black"/>
<path d="M102.824 250.162C102.824 255.307 98.6527 259.478 93.5074 259.478C88.3621 259.478 84.191 255.307 84.191 250.162C84.191 245.017 88.3621 240.845 93.5074 240.845C98.6527 240.845 102.824 245.017 102.824 250.162Z" fill="#1F2937"/>
<path d="M102.824 250.161C102.824 255.306 98.6527 259.477 93.5074 259.477C88.3621 259.477 84.191 255.306 84.191 250.161C84.191 245.016 85.1594 254.302 93.5074 254.302C101.855 254.302 102.824 245.016 102.824 250.161Z" fill="#928C8D"/>
<path d="M85.5149 5.40172C84.7164 6.25802 84.2467 6.51535 83.707 6.01212C83.1674 5.50889 83.3772 4.40677 84.1757 3.55047C84.9743 2.69417 86.0591 2.40795 86.5987 2.91118C87.1384 3.41441 86.3135 4.54542 85.5149 5.40172Z" fill="#F8ECEC"/>
<path d="M85.5149 5.40172C84.7164 6.25802 84.2467 6.51535 83.707 6.01212C83.1674 5.50889 83.3772 4.40677 84.1757 3.55047C84.9743 2.69417 86.0591 2.40795 86.5987 2.91118C87.1384 3.41441 86.3135 4.54542 85.5149 5.40172Z" fill="#F8ECEC"/>
<path d="M82.6786 8.80708C82.2897 9.53854 82.0564 10.1448 81.5954 9.89972C81.1344 9.65462 81.2896 9.03854 81.6785 8.30708C82.0675 7.57563 82.5428 7.00578 83.0038 7.25088C83.4648 7.49598 83.0675 8.07562 82.6786 8.80708Z" fill="#F8ECEC"/>
<path d="M82.6786 8.80708C82.2897 9.53854 82.0564 10.1448 81.5954 9.89972C81.1344 9.65462 81.2896 9.03854 81.6785 8.30708C82.0675 7.57563 82.5428 7.00578 83.0038 7.25088C83.4648 7.49598 83.0675 8.07562 82.6786 8.80708Z" fill="#F8ECEC"/>
</svg>
